<svg width="98" height="111" viewBox="0 0 98 111" fill="none" xmlns="http://www.w3.org/2000/svg">
<path d="M8.87376 99.5228L0 0H97.5047L88.6191 99.507L48.6931 110.576L8.87376 99.5228Z" fill="#E44F26"/>
<path d="M48.7522 102.118L81.0168 93.1727L88.6071 8.1394H48.7522V102.118Z" fill="#F1662A"/>
<path d="M48.7522 45.0481H32.6002L31.4865 32.549H48.7522V20.3422H48.7088H18.1462L18.4385 23.62L21.4359 57.255H48.7522V45.0481Z" fill="#EBEBEB"/>
<path d="M48.7526 76.7478L48.6973 76.7635L35.1043 73.0948L34.2354 63.3601H27.6285H21.9812L23.6912 82.5214L48.6973 89.464L48.7526 89.4482V76.7478Z" fill="#EBEBEB"/>
<path d="M48.7089 45.048V57.2548H63.7394L62.3256 73.087L48.7089 76.7597V89.4602L73.7347 82.5215L73.9163 80.4601L76.7834 48.3258L77.0836 45.048H73.7939H48.7089Z" fill="white"/>
<path d="M48.7089 20.3422V27.9245V32.5214V32.549H78.1538H78.1933L78.4381 29.8083L78.995 23.62L79.2872 20.3422H48.7089Z" fill="white"/>
</svg>
