<svg xmlns="http://www.w3.org/2000/svg" xmlns:xlink="http://www.w3.org/1999/xlink" viewBox="0,0,256,256" width="50px" height="50px" fill-rule="nonzero"><g fill="#162339" fill-rule="nonzero" stroke="none" stroke-width="1" stroke-linecap="butt" stroke-linejoin="miter" stroke-miterlimit="10" stroke-dasharray="" stroke-dashoffset="0" font-family="none" font-weight="none" font-size="none" text-anchor="none" style="mix-blend-mode: normal"><g transform="scale(5.12,5.12)"><path d="M37,4h-24c-4.962,0 -9,4.037 -9,9v24c0,4.963 4.038,9 9,9h24c4.962,0 9,-4.037 9,-9v-24c0,-4.963 -4.038,-9 -9,-9zM20.192,30.218c-0.364,-0.418 -0.321,-1.052 0.097,-1.416c0.418,-0.364 1.052,-0.321 1.416,0.097c0.03,0.034 0.06,0.075 0.084,0.112c0.538,0.826 1.438,1.463 2.476,1.691c1.037,0.23 2.193,0.083 3.16,-0.489c0.968,-0.56 1.732,-1.532 2.007,-2.68c0.221,-1.137 0.261,-2.484 -0.432,-3.533c0.419,0.466 0.678,1.074 0.806,1.697c0.125,0.625 0.189,1.258 0.123,1.92c-0.131,1.313 -0.849,2.58 -1.936,3.422c-1.082,0.855 -2.522,1.269 -3.946,1.149c-1.43,-0.116 -2.843,-0.808 -3.837,-1.949zM25,36c-0.552,0.025 -1.021,-0.402 -1.046,-0.954c-0.025,-0.552 0.402,-1.021 0.954,-1.046c0.029,-0.001 0.063,-0.001 0.092,0c1.643,0.075 3.328,-0.459 4.671,-1.522c1.352,-1.054 2.311,-2.626 2.7,-4.351c0.386,-1.726 0.213,-3.629 -0.528,-5.293c-0.724,-1.678 -2.11,-3.085 -3.843,-3.834c1.79,0.588 3.366,1.899 4.294,3.607c0.942,1.701 1.329,3.711 1.069,5.692c-0.263,1.973 -1.196,3.901 -2.702,5.31c-1.491,1.418 -3.534,2.303 -5.661,2.391zM36.723,27.69c-0.102,2.632 -1.141,5.282 -3.016,7.267l-0.006,0.007c-0.38,0.402 -1.013,0.42 -1.415,0.04c-0.402,-0.38 -0.42,-1.013 -0.04,-1.415c0.015,-0.015 0.032,-0.032 0.047,-0.047c1.63,-1.512 2.677,-3.674 2.917,-5.965c0.265,-2.29 -0.28,-4.68 -1.551,-6.673c-1.254,-2.002 -3.204,-3.584 -5.453,-4.471c-2.251,-0.883 -4.801,-1.073 -7.206,-0.508c2.361,-0.728 4.968,-0.728 7.375,0.031c2.402,0.762 4.6,2.286 6.121,4.377c1.534,2.075 2.356,4.718 2.227,7.357zM39.019,28.031c-0.552,0.011 -1.009,-0.428 -1.019,-0.981c0,-0.016 0,-0.035 0,-0.05c0.094,-3.039 -0.846,-6.116 -2.805,-8.498c-1.933,-2.397 -4.781,-4.046 -7.86,-4.713c-3.078,-0.677 -6.403,-0.462 -9.349,0.795c-2.956,1.232 -5.471,3.531 -6.986,6.416c1.365,-2.956 3.792,-5.438 6.782,-6.865c2.979,-1.454 6.443,-1.866 9.741,-1.319c3.302,0.539 6.504,2.145 8.807,4.712c2.33,2.542 3.604,6.014 3.67,9.472v0.012c0.011,0.552 -0.428,1.009 -0.981,1.019z"></path></g></g></svg>