<svg width="77" height="87" viewBox="0 0 77 87" fill="none" xmlns="http://www.w3.org/2000/svg">
<path d="M74.6908 20.0598L40.6947 0.492697C40.1316 0.14077 39.3574 0 38.5128 0C37.6682 0 36.8939 0.211156 36.3308 0.492697L2.54593 20.1302C1.34938 20.834 0.504761 22.5937 0.504761 23.931V63.1356C0.504761 63.9098 0.645531 64.8248 1.20861 65.599L76.38 21.9602C75.9577 21.1156 75.3243 20.4821 74.6908 20.0598Z" fill="#659AD3"/>
<path d="M0.997437 65.5286C1.34936 66.0917 1.84206 66.5844 2.33476 66.8659L36.2604 86.5034C36.8235 86.8553 37.5978 86.9961 38.4424 86.9961C39.287 86.9961 40.0612 86.785 40.6243 86.5034L74.4092 66.8659C75.6058 66.1621 76.4504 64.4025 76.4504 63.0651V23.8606C76.4504 23.2271 76.38 22.5232 76.0281 21.8898L0.997437 65.5286Z" fill="#03599C"/>
<path d="M53.5048 52.0147C50.5486 57.2232 44.9178 60.7425 38.5127 60.7425C29.0107 60.7425 21.2684 53.0001 21.2684 43.4981C21.2684 33.9961 29.0107 26.2537 38.5127 26.2537C44.9178 26.2537 50.5486 29.773 53.5048 35.0519L62.6549 29.773C57.8687 21.3971 48.8594 15.6959 38.5127 15.6959C23.1688 15.6959 10.7106 28.1541 10.7106 43.4981C10.7106 58.8421 23.1688 71.3003 38.5127 71.3003C48.789 71.3003 57.7983 65.6694 62.5845 57.364L53.5048 52.0147Z" fill="white"/>
</svg>
