<svg width="77" height="76" viewBox="0 0 77 76" fill="none" xmlns="http://www.w3.org/2000/svg">
<path d="M0.945679 0H76.8913V75.9457H0.945679V0Z" fill="#F7DF1E"/>
<path d="M20.9145 63.4658L26.7264 59.9485C27.8477 61.9365 28.8676 63.6185 31.3142 63.6185C33.6593 63.6185 35.1378 62.7011 35.1378 59.1329V34.8665H42.2748V59.2338C42.2748 66.6258 37.9418 69.9905 31.6201 69.9905C25.9108 69.9905 22.5967 67.0335 20.9144 63.4652" fill="black"/>
<path d="M46.1515 62.701L51.9627 59.3364C53.4924 61.8346 55.4806 63.6697 58.998 63.6697C61.9552 63.6697 63.8409 62.1912 63.8409 60.152C63.8409 57.705 61.9038 56.8382 58.6411 55.4113L56.8573 54.6461C51.7081 52.4544 48.2923 49.7015 48.2923 43.8897C48.2923 38.5369 52.3706 34.4584 58.7433 34.4584C63.2805 34.4584 66.5431 36.0389 68.8879 40.1683L63.3311 43.7366C62.1076 41.5447 60.7825 40.6782 58.7434 40.6782C56.6532 40.6782 55.3277 42.0036 55.3277 43.7366C55.3277 45.8778 56.6532 46.7447 59.7116 48.0702L61.4958 48.8349C67.5624 51.435 70.9781 54.0856 70.9781 60.05C70.9781 66.4738 65.9312 69.9911 59.1511 69.9911C52.5238 69.9911 48.2413 66.8305 46.1515 62.701Z" fill="black"/>
</svg>
