<svg width="76" height="87" viewBox="0 0 76 87" fill="none" xmlns="http://www.w3.org/2000/svg">
<path d="M6.90918 77.5238L0 0H75.9457L69.0272 77.5115L37.9267 86.1341L6.90918 77.5238Z" fill="#1572B6"/>
<path d="M37.9728 79.545L63.1055 72.5773L69.018 6.34021H37.9728V79.545Z" fill="#33A9DC"/>
<path d="M37.9728 34.4261H50.5545L51.422 24.6899H37.9728V15.1813H38.0066H61.8135L61.5858 17.7315L59.251 43.9347H37.9728V34.4261Z" fill="white"/>
<path d="M38.0313 59.1188L37.9882 59.1311L27.3999 56.2703L26.7231 48.6874H21.5766H17.1776L18.5096 63.6163L37.9851 69.0243L38.0313 69.012V59.1188Z" fill="#EBEBEB"/>
<path d="M49.7456 43.5316L48.6013 56.2641L37.9976 59.125V69.0181L57.4885 63.6162L57.6331 62.0105L59.285 43.5316H49.7456Z" fill="white"/>
<path d="M38.0065 15.1813V21.0876V24.6653V24.6899H15.0703H15.0395L14.8488 22.5519L14.415 17.7315L14.1874 15.1813H38.0065Z" fill="#EBEBEB"/>
<path d="M37.9727 34.426V40.3324V43.91V43.9346H27.5474H27.5166L27.3259 41.7966L26.8952 36.9762L26.6676 34.426H37.9727Z" fill="#EBEBEB"/>
</svg>
