<svg width="76" height="114" viewBox="0 0 76 114" fill="none" xmlns="http://www.w3.org/2000/svg">
<path d="M56.9592 75.9456C67.4451 75.9456 75.9456 67.4451 75.9456 56.9592C75.9456 46.4733 67.4451 37.9728 56.9592 37.9728C46.4733 37.9728 37.9728 46.4733 37.9728 56.9592C37.9728 67.4451 46.4733 75.9456 56.9592 75.9456Z" fill="#19BCFE"/>
<path fill-rule="evenodd" clip-rule="evenodd" d="M18.9864 113.919C29.4723 113.919 37.9728 105.418 37.9728 94.9321C37.9728 92.0696 37.9728 85.7408 37.9728 75.9457C29.4434 75.9457 23.1146 75.9457 18.9864 75.9457C8.50051 75.9457 0 84.4462 0 94.9321C0 105.418 8.50051 113.919 18.9864 113.919Z" fill="#09CF83"/>
<path fill-rule="evenodd" clip-rule="evenodd" d="M18.9864 75.9456H37.9728V37.9728C28.8105 37.9728 22.4817 37.9728 18.9864 37.9728C8.50051 37.9728 0 46.4733 0 56.9592C0 67.4451 8.50051 75.9456 18.9864 75.9456Z" fill="#A259FF"/>
<path fill-rule="evenodd" clip-rule="evenodd" d="M18.9864 37.9728H37.9728V0C28.8105 0 22.4817 0 18.9864 0C8.50051 0 0 8.50051 0 18.9864C0 29.4723 8.50051 37.9728 18.9864 37.9728Z" fill="#F24E1E"/>
<path fill-rule="evenodd" clip-rule="evenodd" d="M56.9592 37.9728H37.9728V0H56.9592C67.4451 0 75.9456 8.50051 75.9456 18.9864C75.9456 29.4723 67.4451 37.9728 56.9592 37.9728Z" fill="#FF7262"/>
</svg>
