<svg width="76" height="75" viewBox="0 0 76 75" fill="none" xmlns="http://www.w3.org/2000/svg">
<g clip-path="url(#clip0_73_45)">
<path d="M3.16455 3.17212H72.7856V70.8944H3.16455V3.17212Z" fill="url(#paint0_radial_73_45)"/>
<path d="M3.16455 3.17211H72.7856V70.8944H3.16455V3.17211ZM0 74.0591H75.9501V0.00756836H0V74.0591ZM51.2031 30.3876C48.703 30.3876 47.8487 31.6534 47.8487 32.6977C47.8487 33.8369 48.4182 34.6281 51.7727 36.3687C56.7411 38.7738 58.2918 41.0839 58.2918 44.4701C58.2918 49.5334 54.431 52.2549 49.2094 52.2549C46.4562 52.2549 44.0827 51.6852 42.7219 50.8942C42.5005 50.7993 42.4688 50.6411 42.4688 50.3878V45.7359C42.4688 45.4194 42.627 45.3244 42.8486 45.4827C44.8423 46.7803 47.1208 47.3498 49.2094 47.3498C51.7094 47.3498 52.7537 46.3055 52.7537 44.8814C52.7537 43.7422 52.0259 42.7295 48.8295 41.0839C44.3358 38.932 42.4688 36.7485 42.4688 33.1092C42.4688 29.0268 45.6651 25.6407 51.2031 25.6407C53.9246 25.6407 55.8234 26.0522 56.8677 26.5268C57.1208 26.685 57.1841 26.9382 57.1841 27.1597V31.4951C57.1841 31.7482 57.0259 31.9065 56.7093 31.8115C55.317 30.9257 53.26 30.3876 51.2031 30.3876ZM23.9875 34.1535C24.7154 34.2168 25.2851 34.2168 26.5509 34.2168C30.2536 34.2168 33.7346 32.9193 33.7346 27.8877C33.7346 23.8687 31.2345 21.8432 27.0257 21.8432C25.7599 21.8432 24.5572 21.9065 23.9875 21.9382V34.1535ZM18.3547 17.3495C18.3547 17.128 18.7978 16.9697 19.0508 16.9697C21.0763 16.8747 24.0826 16.8114 27.2155 16.8114C35.9814 16.8114 39.3991 21.6216 39.3991 27.761C39.3991 35.799 33.5762 39.2484 26.4243 39.2484C25.2218 39.2484 24.8105 39.1851 23.9559 39.1851V51.3372C23.9559 51.5903 23.861 51.7169 23.5762 51.7169H18.7344C18.4813 51.7169 18.3546 51.622 18.3546 51.3372V17.3495H18.3547Z" fill="#31C5F0"/>
</g>
<defs>
<radialGradient id="paint0_radial_73_45" cx="0" cy="0" r="1" gradientUnits="userSpaceOnUse" gradientTransform="translate(26.0943 18.3487) scale(52.9119 51.2284)">
<stop stop-color="#34364E" stop-opacity="0.98"/>
<stop offset="1" stop-color="#0C0824"/>
</radialGradient>
<clipPath id="clip0_73_45">
<rect width="75.95" height="74.0664" fill="white"/>
</clipPath>
</defs>
</svg>
